<svg width="22" height="20" viewBox="0 0 22 20" fill="none" xmlns="http://www.w3.org/2000/svg">
<path d="M15.8583 1.375C18.4708 1.375 20.625 3.75833 20.625 6.64583C20.625 9.7625 17.9208 11.6875 15.3542 13.9792C12.7875 16.2708 11.4583 17.5083 11 17.7833C10.4958 17.4625 8.84583 15.95 6.64583 13.9792C4.03333 11.6875 1.375 9.7625 1.375 6.64583C1.375 3.75833 3.52917 1.375 6.14167 1.375C8.06667 1.375 9.12083 2.29167 9.85417 3.34583C10.725 4.5375 10.8625 5.13333 11 5.13333C11.1375 5.13333 11.275 4.5375 12.1458 3.34583C12.8792 2.29167 13.9333 1.375 15.8583 1.375ZM15.8583 0C13.7958 0 12.2375 0.825 11 2.56667C9.7625 0.870833 8.20417 0.0458334 6.14167 0.0458334C2.75 6.48821e-08 0 2.97917 0 6.64583C0 9.99167 2.475 12.1458 4.85833 14.2083C5.13333 14.4375 5.45417 14.7125 5.72917 14.9875L6.78333 15.9042C8.8 17.6917 9.80833 18.6083 10.2667 18.8833C10.4958 19.0208 10.7708 19.1125 11 19.1125C11.275 19.1125 11.5042 19.0208 11.7333 18.8833C12.1917 18.6083 13.0167 17.875 15.3083 15.7667L16.225 14.9417C16.5458 14.6667 16.8208 14.3917 17.1417 14.1625C19.5708 12.1458 22 10.0375 22 6.64583C22 2.97917 19.25 0 15.8583 0Z" fill="#262626"/>
</svg>
