<svg width="10" height="10" viewBox="0 0 10 10" fill="none" xmlns="http://www.w3.org/2000/svg">
<path opacity="0.996" d="M5.06808 0.0045268C5.86114 0.0309157 6.30836 0.130916 6.94308 0.42536C7.40141 0.636471 8.07364 1.10314 8.43614 1.46286C8.80141 1.82397 9.26669 2.48786 9.4778 2.94897C9.80002 3.65175 9.85975 3.96703 9.85836 4.96286C9.85558 5.95175 9.79447 6.27953 9.47502 6.97675C9.26391 7.44203 8.80419 8.09897 8.43614 8.46286C8.07364 8.82258 7.40141 9.29064 6.94308 9.50453C6.23614 9.83508 5.93058 9.89342 4.92919 9.89342C3.9278 9.89342 3.62225 9.83508 2.9153 9.50453C2.45697 9.29064 1.78475 8.82258 1.42225 8.46286C1.05697 8.10175 0.59169 7.43786 0.380579 6.97675C0.0583567 6.27536 -0.0013655 5.9573 2.33867e-05 4.96286C2.33867e-05 3.96286 0.0597456 3.65453 0.388912 2.94897C0.601412 2.49064 1.03891 1.8448 1.35975 1.51425C1.68058 1.1823 2.19308 0.783694 2.49863 0.62536C2.80419 0.468416 3.27363 0.255916 3.5403 0.154527C3.82919 0.0434157 4.44725 -0.0176954 5.06808 0.0045268ZM2.43613 1.63092C2.17225 1.82119 1.7778 2.22675 1.56113 2.5323C1.34308 2.83786 1.07363 3.40036 0.962523 3.7823C0.851412 4.16425 0.759746 4.74203 0.761135 5.06703C0.762523 5.39203 0.884746 5.98508 1.03475 6.38647C1.18475 6.78786 1.54447 7.38786 1.83336 7.7198C2.12363 8.05314 2.70141 8.48925 3.12363 8.69203C3.74169 8.98925 4.08752 9.06008 4.92919 9.06008C5.77363 9.06008 6.1153 8.98925 6.73475 8.69064C7.15558 8.48786 7.71252 8.08092 7.97502 7.78786C8.23613 7.4948 8.57919 6.97397 8.73614 6.62953C8.9403 6.17953 9.02086 5.71286 9.02363 4.96286C9.02641 4.11703 8.95697 3.77814 8.65836 3.1573C8.45558 2.73508 8.01947 2.1573 7.68613 1.86703C7.35419 1.57814 6.75419 1.21842 6.3528 1.06842C5.95141 0.918416 5.32641 0.797582 4.96391 0.80036C4.60141 0.803138 3.99169 0.91286 3.60975 1.0448C3.2278 1.17675 2.70002 1.44064 2.43613 1.63092ZM3.60002 3.0198L4.92919 4.33786L6.33197 2.94897L6.86114 3.64342L5.55419 4.96286L6.87225 6.2823L6.24863 6.90592L4.92919 5.58786L3.60975 6.90592L2.98613 6.2823L4.30419 4.96286L2.98613 3.64342L3.60002 3.0198Z" fill="#8E8E8E"/>
</svg>
