<svg width="22" height="22" viewBox="0 0 22 22" fill="none" xmlns="http://www.w3.org/2000/svg">
<path fill-rule="evenodd" clip-rule="evenodd" d="M4.4 13.7769C4.06522 14.2553 4.68696 14.8293 5.16522 14.4945L8.65652 11.8635C8.89565 11.6721 9.23044 11.6721 9.46957 11.8635L12.0522 13.7769C12.8174 14.351 13.9174 14.1596 14.4435 13.3464L17.6957 8.22789C18.0304 7.74952 17.4087 7.17548 16.9304 7.51034L13.3913 10.1413C13.1522 10.3327 12.8174 10.3327 12.5783 10.1413L9.99565 8.22789C9.23043 7.65385 8.13043 7.84519 7.60435 8.65842L4.4 13.7769ZM11 0C17.2174 0 22 4.54447 22 10.6676C22 16.7906 17.2174 21.3351 11 21.3351C9.9 21.3351 8.8 21.1916 7.79565 20.9046C7.60435 20.8567 7.41304 20.8567 7.22174 20.9524L5.02174 21.9091C4.49565 22.1962 3.82609 21.7656 3.82609 21.1438L3.77826 19.1825C3.77826 18.9433 3.68261 18.7041 3.4913 18.5606C1.2913 16.6471 0 13.8726 0 10.6676C0 4.54447 4.78261 0 11 0Z" fill="#262626"/>
</svg>
