<svg width="96" height="96" viewBox="0 0 96 96" fill="none" xmlns="http://www.w3.org/2000/svg">
<path d="M73.4609 32.7652L58.4348 44.2435C57.3913 45.0783 55.9304 45.0783 54.887 44.2435L43.6174 35.8957C40.2783 33.3913 35.4783 34.2261 33.1826 37.7739L18.9913 60.1043C17.5304 62.1913 20.2435 64.6956 22.3304 63.2348L37.5652 51.7565C38.6087 50.9217 40.0696 50.9217 41.113 51.7565L52.3826 60.1043C55.7217 62.6087 60.5217 61.7739 62.8174 58.2261L77.0087 35.8957C78.2609 33.6 75.5478 31.3043 73.4609 32.7652ZM48 0C20.8696 0 0 19.8261 0 46.5391C0 60.5217 5.63478 72.6261 15.0261 80.9739C15.8609 81.6 16.2783 82.6435 16.2783 83.687L16.6957 92.2435C16.6957 94.3304 18.5739 96 20.4522 96C20.8696 96 21.4957 96 21.913 95.5826L31.513 91.4087C31.9304 91.2 32.5565 90.9913 32.9739 90.9913C33.3913 90.9913 33.6 90.9913 34.0174 91.2C38.4 92.4522 42.9913 93.0783 48 93.0783C75.1304 93.0783 96 73.2522 96 46.5391C96 19.8261 75.1304 0 48 0ZM48 86.8174C43.8261 86.8174 39.6522 86.1913 35.687 85.1478C34.8522 84.9391 34.0174 84.7304 32.9739 84.7304C31.513 84.7304 30.2609 84.9391 28.8 85.5652L22.5391 88.2783V83.4783C22.5391 80.7652 21.287 78.2609 19.2 76.3826C10.8522 68.8696 6.26087 58.2261 6.26087 46.5391C6.26087 23.5826 24.2087 6.26087 48 6.26087C71.7913 6.26087 89.7391 23.5826 89.7391 46.5391C89.7391 69.4957 71.7913 86.8174 48 86.8174Z" fill="#262626"/>
</svg>
