<svg xmlns="http://www.w3.org/2000/svg" viewBox="0 0 184 25" width="184" height="25">
	<style>
		tspan { white-space:pre }
		.shp0 { fill: #000000 } 
	</style>
	<path id="100ballovgram " class="shp0" d="M0.6 19L0.6 16.92L4.63 16.92L4.63 3.02L0.25 3.9L0.25 1.65L4.6 0.77L7.07 0.77L7.07 16.92L11.1 16.92L11.1 19L0.6 19ZM21.35 0.45C23.4 0.45 24.95 1.26 26.03 2.87C27.11 4.49 27.65 6.83 27.65 9.91C27.65 12.97 27.11 15.32 26.03 16.94C24.95 18.55 23.4 19.35 21.35 19.35C19.31 19.35 17.75 18.55 16.67 16.94C15.59 15.32 15.05 12.97 15.05 9.91C15.05 6.83 15.59 4.49 16.67 2.87C17.75 1.26 19.31 0.45 21.35 0.45ZM21.35 2.4C20.08 2.4 19.13 3.03 18.48 4.28C17.85 5.52 17.53 7.4 17.53 9.91C17.53 12.4 17.85 14.28 18.48 15.53C19.13 16.78 20.08 17.4 21.35 17.4C22.63 17.4 23.59 16.78 24.22 15.53C24.86 14.28 25.19 12.4 25.19 9.91C25.19 7.4 24.86 5.52 24.22 4.28C23.59 3.03 22.63 2.4 21.35 2.4ZM37.26 0.45C39.3 0.45 40.86 1.26 41.93 2.87C43.02 4.49 43.56 6.83 43.56 9.91C43.56 12.97 43.02 15.32 41.93 16.94C40.86 18.55 39.3 19.35 37.26 19.35C35.22 19.35 33.65 18.55 32.57 16.94C31.5 15.32 30.96 12.97 30.96 9.91C30.96 6.83 31.5 4.49 32.57 2.87C33.65 1.26 35.22 0.45 37.26 0.45ZM37.26 2.4C35.99 2.4 35.03 3.03 34.39 4.28C33.75 5.52 33.44 7.4 33.44 9.91C33.44 12.4 33.75 14.28 34.39 15.53C35.03 16.78 35.99 17.4 37.26 17.4C38.54 17.4 39.49 16.78 40.13 15.53C40.77 14.28 41.09 12.4 41.09 9.91C41.09 7.4 40.77 5.52 40.13 4.28C39.49 3.03 38.54 2.4 37.26 2.4ZM49.75 0.01L49.75 7.4C50.22 6.59 50.81 5.99 51.53 5.6C52.25 5.2 53.12 5 54.12 5C55.78 5 57.12 5.66 58.16 6.98C59.2 8.29 59.72 10.03 59.72 12.18C59.72 14.32 59.2 16.06 58.16 17.38C57.12 18.69 55.78 19.35 54.12 19.35C53.12 19.35 52.25 19.16 51.53 18.77C50.81 18.37 50.22 17.76 49.75 16.95L49.75 19L47.49 19L47.49 0.01L49.75 0.01ZM57.39 12.18C57.39 10.52 57.05 9.23 56.36 8.29C55.69 7.35 54.76 6.88 53.57 6.88C52.38 6.88 51.44 7.35 50.76 8.29C50.08 9.23 49.75 10.52 49.75 12.18C49.75 13.83 50.08 15.13 50.76 16.07C51.44 17.01 52.38 17.47 53.57 17.47C54.76 17.47 55.69 17.01 56.36 16.07C57.05 15.13 57.39 13.83 57.39 12.18ZM74.14 11.2L74.14 19L71.89 19L71.89 16.92C71.38 17.75 70.74 18.37 69.97 18.77C69.21 19.16 68.27 19.35 67.17 19.35C65.77 19.35 64.65 18.96 63.82 18.18C63 17.39 62.59 16.34 62.59 15.02C62.59 13.48 63.1 12.32 64.13 11.54C65.16 10.76 66.7 10.37 68.74 10.37L71.89 10.37L71.89 10.15C71.89 9.12 71.55 8.32 70.86 7.76C70.19 7.19 69.24 6.9 68.01 6.9C67.23 6.9 66.47 7 65.73 7.18C64.98 7.37 64.27 7.65 63.59 8.03L63.59 5.95C64.41 5.63 65.21 5.4 65.98 5.24C66.75 5.08 67.51 5 68.24 5C70.22 5 71.69 5.51 72.67 6.54C73.65 7.56 74.14 9.12 74.14 11.2ZM71.89 12.13L69.66 12.13C67.84 12.13 66.58 12.33 65.88 12.75C65.18 13.17 64.83 13.87 64.83 14.87C64.83 15.67 65.09 16.31 65.62 16.78C66.14 17.24 66.86 17.47 67.76 17.47C69.01 17.47 70.01 17.03 70.75 16.16C71.51 15.27 71.89 14.09 71.89 12.63L71.89 12.13ZM78.76 19L78.76 0.01L81.01 0.01L81.01 19L78.76 19ZM85.71 19L85.71 0.01L87.95 0.01L87.95 19L85.71 19ZM97.95 5C99.9 5 101.44 5.63 102.55 6.9C103.67 8.17 104.23 9.93 104.23 12.18C104.23 14.41 103.67 16.17 102.55 17.45C101.44 18.72 99.9 19.35 97.95 19.35C95.99 19.35 94.45 18.72 93.34 17.45C92.23 16.17 91.68 14.41 91.68 12.18C91.68 9.93 92.23 8.17 93.34 6.9C94.45 5.63 95.99 5 97.95 5ZM97.95 6.9C96.75 6.9 95.8 7.37 95.1 8.32C94.4 9.25 94.05 10.54 94.05 12.18C94.05 13.81 94.39 15.1 95.08 16.05C95.78 16.98 96.74 17.45 97.95 17.45C99.15 17.45 100.1 16.98 100.8 16.03C101.5 15.09 101.85 13.8 101.85 12.18C101.85 10.56 101.5 9.28 100.8 8.33C100.1 7.38 99.15 6.9 97.95 6.9ZM111.46 19L106.34 5.33L108.72 5.33L112.99 16.8L117.26 5.33L119.64 5.33L114.52 19L111.46 19ZM133.99 5.33L133.99 17.3C133.99 19.63 133.47 21.36 132.44 22.5C131.4 23.63 129.82 24.2 127.69 24.2C126.9 24.2 126.15 24.14 125.45 24.03C124.75 23.91 124.07 23.72 123.42 23.48L123.42 21.29C124.07 21.65 124.73 21.92 125.37 22.09C126.01 22.26 126.67 22.34 127.33 22.34C128.81 22.34 129.91 21.96 130.64 21.2C131.37 20.42 131.74 19.26 131.74 17.71L131.74 16.6C131.28 17.4 130.68 18 129.96 18.4C129.23 18.8 128.37 19 127.36 19C125.68 19 124.33 18.36 123.31 17.08C122.28 15.81 121.77 14.11 121.77 12.01C121.77 9.89 122.28 8.19 123.31 6.92C124.33 5.64 125.68 5 127.36 5C128.37 5 129.23 5.2 129.96 5.6C130.68 6 131.28 6.6 131.74 7.4L131.74 5.33L133.99 5.33ZM131.74 12.01C131.74 10.38 131.4 9.12 130.73 8.22C130.06 7.33 129.12 6.88 127.91 6.88C126.7 6.88 125.76 7.33 125.09 8.22C124.42 9.12 124.09 10.38 124.09 12.01C124.09 13.62 124.42 14.88 125.09 15.78C125.76 16.67 126.7 17.12 127.91 17.12C129.12 17.12 130.06 16.67 130.73 15.78C131.4 14.88 131.74 13.62 131.74 12.01ZM146.52 5.12L146.54 7.43C146.28 7.28 146.01 7.18 145.71 7.11C145.41 7.04 145.09 7 144.73 7C143.46 7 142.48 7.42 141.8 8.25C141.12 9.07 140.79 10.25 140.79 11.8L140.79 19L138.53 19L138.53 5.33L140.79 5.33L140.79 7.45C141.26 6.62 141.87 6.01 142.63 5.61C143.39 5.2 144.31 5 145.39 5C145.54 5 145.71 5.01 145.9 5.04C146.09 5.05 146.3 5.08 146.52 5.12ZM159.58 11.2L159.58 19L157.34 19L157.34 16.92C156.83 17.75 156.19 18.37 155.42 18.77C154.66 19.16 153.72 19.35 152.61 19.35C151.22 19.35 150.1 18.96 149.27 18.18C148.45 17.39 148.04 16.34 148.04 15.02C148.04 13.48 148.55 12.32 149.58 11.54C150.61 10.76 152.15 10.37 154.19 10.37L157.34 10.37L157.34 10.15C157.34 9.12 157 8.32 156.31 7.76C155.64 7.19 154.69 6.9 153.46 6.9C152.68 6.9 151.91 7 151.17 7.18C150.43 7.37 149.72 7.65 149.04 8.03L149.04 5.95C149.86 5.63 150.66 5.4 151.43 5.24C152.2 5.08 152.96 5 153.69 5C155.67 5 157.14 5.51 158.12 6.54C159.1 7.56 159.58 9.12 159.58 11.2ZM157.34 12.13L155.1 12.13C153.29 12.13 152.03 12.33 151.33 12.75C150.63 13.17 150.28 13.87 150.28 14.87C150.28 15.67 150.54 16.31 151.06 16.78C151.59 17.24 152.31 17.47 153.21 17.47C154.46 17.47 155.45 17.03 156.2 16.16C156.96 15.27 157.34 14.09 157.34 12.63L157.34 12.13ZM174.86 7.95C175.42 6.94 176.09 6.2 176.87 5.72C177.65 5.24 178.57 5 179.63 5C181.05 5 182.15 5.5 182.92 6.5C183.7 7.49 184.08 8.91 184.08 10.75L184.08 19L181.83 19L181.83 10.82C181.83 9.51 181.59 8.54 181.13 7.9C180.67 7.27 179.96 6.95 179.01 6.95C177.84 6.95 176.92 7.34 176.25 8.11C175.57 8.88 175.23 9.94 175.23 11.27L175.23 19L172.98 19L172.98 10.82C172.98 9.5 172.74 8.53 172.28 7.9C171.82 7.27 171.1 6.95 170.13 6.95C168.98 6.95 168.07 7.34 167.4 8.12C166.72 8.9 166.38 9.95 166.38 11.27L166.38 19L164.13 19L164.13 5.33L166.38 5.33L166.38 7.45C166.9 6.61 167.51 6 168.23 5.6C168.94 5.2 169.79 5 170.78 5C171.77 5 172.61 5.25 173.31 5.76C174.01 6.26 174.52 6.99 174.86 7.95Z" />
</svg>