<svg width="10" height="10" viewBox="0 0 10 10" fill="none" xmlns="http://www.w3.org/2000/svg">
<path d="M4.02503 0C1.80876 0 0 1.80876 0 4.02503C0 6.24129 1.80876 8.05006 4.02503 8.05006C4.93358 8.05006 5.77078 7.74277 6.4456 7.23117L9.04549 9.83051C9.0967 9.88354 9.15796 9.92583 9.2257 9.95493C9.29343 9.98402 9.36628 9.99934 9.44 9.99998C9.51371 10.0006 9.58682 9.98657 9.65505 9.95866C9.72328 9.93074 9.78526 9.88952 9.83739 9.83739C9.88952 9.78526 9.93074 9.72328 9.95866 9.65505C9.98657 9.58682 10.0006 9.51371 9.99998 9.44C9.99934 9.36628 9.98402 9.29343 9.95493 9.2257C9.92583 9.15796 9.88354 9.0967 9.83051 9.04549L7.23145 6.44588C7.74277 5.77078 8.05006 4.93358 8.05006 4.02503C8.05006 1.80876 6.24129 0 4.02503 0ZM4.02503 1.11035C4.4081 1.10925 4.78761 1.18389 5.14173 1.32998C5.49585 1.47607 5.8176 1.69072 6.08847 1.96159C6.35934 2.23246 6.57399 2.55421 6.72008 2.90833C6.86617 3.26245 6.94081 3.64196 6.93971 4.02503C6.93971 4.80117 6.63825 5.5018 6.14802 6.02283C6.10033 6.05744 6.05844 6.09942 6.02394 6.14719C5.48366 6.65751 4.76822 6.94117 4.02503 6.93971C3.64196 6.94081 3.26245 6.86617 2.90833 6.72008C2.55421 6.57399 2.23246 6.35934 1.96159 6.08847C1.69072 5.8176 1.47607 5.49585 1.32998 5.14173C1.18389 4.78761 1.10925 4.4081 1.11035 4.02503C1.10925 3.64196 1.18389 3.26245 1.32998 2.90833C1.47607 2.55421 1.69072 2.23246 1.96159 1.96159C2.23246 1.69072 2.55421 1.47607 2.90833 1.32998C3.26245 1.18389 3.64196 1.10925 4.02503 1.11035Z" fill="#8E8E8E"/>
</svg>
